<?xml version="1.0" encoding="UTF-8" standalone="no"?>
<!DOCTYPE svg PUBLIC "-//W3C//DTD SVG 1.1//EN"
 "http://www.w3.org/Graphics/SVG/1.1/DTD/svg11.dtd">
<!-- Generated by graphviz version 2.47.0 (20210316.0004)
 -->
<!-- Title: dependencies Pages: 1 -->
<svg width="556pt" height="211pt"
 viewBox="0.00 0.00 556.00 211.00" xmlns="http://www.w3.org/2000/svg" xmlns:xlink="http://www.w3.org/1999/xlink">
<g id="graph0" class="graph" transform="scale(1 1) rotate(0) translate(4 207)">
<title>dependencies</title>
<polygon fill="white" stroke="transparent" points="-4,4 -4,-207 552,-207 552,4 -4,4"/>
<text text-anchor="start" x="253.01" y="-42.4" font-family="Times-12" font-weight="bold" font-size="14.00">Legend</text>
<polygon fill="#ffffb3" stroke="transparent" points="40,-10 40,-30 60,-30 60,-10 40,-10"/>
<text text-anchor="start" x="63.63" y="-15.4" font-family="Times-12" font-size="14.00"> &#160;Declarations</text>
<polygon fill="#8dd3c7" stroke="transparent" points="153,-10 153,-30 173,-30 173,-10 153,-10"/>
<text text-anchor="start" x="176.73" y="-15.4" font-family="Times-12" font-size="14.00"> &#160;Module</text>
<polygon fill="#80b1d3" stroke="transparent" points="239,-10 239,-30 259,-30 259,-10 239,-10"/>
<text text-anchor="start" x="262.78" y="-15.4" font-family="Times-12" font-size="14.00"> &#160;Bootstrap</text>
<polygon fill="#fdb462" stroke="transparent" points="336,-10 336,-30 356,-30 356,-10 336,-10"/>
<text text-anchor="start" x="359.67" y="-15.4" font-family="Times-12" font-size="14.00"> &#160;Providers</text>
<polygon fill="#fb8072" stroke="transparent" points="432,-10 432,-30 452,-30 452,-10 432,-10"/>
<text text-anchor="start" x="455.73" y="-15.4" font-family="Times-12" font-size="14.00"> &#160;Exports</text>
<g id="clust1" class="cluster">
<title>cluster_Route2Module</title>
<polygon fill="none" stroke="black" stroke-dasharray="1,5" points="8,-70 8,-195 540,-195 540,-70 8,-70"/>
</g>
<g id="clust2" class="cluster">
<title>cluster_Route2Module_declarations</title>
<polygon fill="none" stroke="black" points="186,-78 186,-130 532,-130 532,-78 186,-78"/>
</g>
<g id="clust5" class="cluster">
<title>cluster_Route2Module_imports</title>
<polygon fill="none" stroke="black" points="16,-78 16,-130 178,-130 178,-78 16,-78"/>
</g>
<!-- Route2Child2Component -->
<g id="node1" class="node">
<title>Route2Child2Component</title>
<polygon fill="#ffffb3" stroke="black" points="523.89,-122 364.11,-122 364.11,-86 523.89,-86 523.89,-122"/>
<text text-anchor="middle" x="444" y="-99.8" font-family="Times,serif" font-size="14.00">Route2Child2Component</text>
</g>
<!-- Route2Module -->
<g id="node3" class="node">
<title>Route2Module</title>
<polygon fill="#8dd3c7" stroke="black" points="319.99,-187 316.99,-191 295.99,-191 292.99,-187 220.01,-187 220.01,-151 319.99,-151 319.99,-187"/>
<text text-anchor="middle" x="270" y="-164.8" font-family="Times,serif" font-size="14.00">Route2Module</text>
</g>
<!-- Route2Child2Component&#45;&gt;Route2Module -->
<g id="edge1" class="edge">
<title>Route2Child2Component&#45;&gt;Route2Module</title>
<path fill="none" stroke="black" d="M444,-122.11C444,-141.34 444,-169 444,-169 444,-169 330.33,-169 330.33,-169"/>
<polygon fill="black" stroke="black" points="330.33,-165.5 320.33,-169 330.33,-172.5 330.33,-165.5"/>
</g>
<!-- Route2ChildComponent -->
<g id="node2" class="node">
<title>Route2ChildComponent</title>
<polygon fill="#ffffb3" stroke="black" points="346.39,-122 193.61,-122 193.61,-86 346.39,-86 346.39,-122"/>
<text text-anchor="middle" x="270" y="-99.8" font-family="Times,serif" font-size="14.00">Route2ChildComponent</text>
</g>
<!-- Route2ChildComponent&#45;&gt;Route2Module -->
<g id="edge2" class="edge">
<title>Route2ChildComponent&#45;&gt;Route2Module</title>
<path fill="none" stroke="black" d="M270,-122.11C270,-122.11 270,-140.99 270,-140.99"/>
<polygon fill="black" stroke="black" points="266.5,-140.99 270,-150.99 273.5,-140.99 266.5,-140.99"/>
</g>
<!-- Route2RoutingModule -->
<g id="node4" class="node">
<title>Route2RoutingModule</title>
<polygon fill="#8dd3c7" stroke="black" points="169.61,-122 166.61,-126 145.61,-126 142.61,-122 24.39,-122 24.39,-86 169.61,-86 169.61,-122"/>
<text text-anchor="middle" x="97" y="-99.8" font-family="Times,serif" font-size="14.00">Route2RoutingModule</text>
</g>
<!-- Route2RoutingModule&#45;&gt;Route2Module -->
<g id="edge3" class="edge">
<title>Route2RoutingModule&#45;&gt;Route2Module</title>
<path fill="none" stroke="black" d="M97,-122.11C97,-141.34 97,-169 97,-169 97,-169 209.96,-169 209.96,-169"/>
<polygon fill="black" stroke="black" points="209.96,-172.5 219.96,-169 209.96,-165.5 209.96,-172.5"/>
</g>
</g>
</svg>
