<?xml version="1.0" encoding="UTF-8" standalone="no"?>
<!DOCTYPE svg PUBLIC "-//W3C//DTD SVG 1.1//EN"
 "http://www.w3.org/Graphics/SVG/1.1/DTD/svg11.dtd">
<!-- Generated by graphviz version 2.47.0 (20210316.0004)
 -->
<!-- Title: dependencies Pages: 1 -->
<svg width="1674pt" height="284pt"
 viewBox="0.00 0.00 1674.00 284.00" xmlns="http://www.w3.org/2000/svg" xmlns:xlink="http://www.w3.org/1999/xlink">
<g id="graph0" class="graph" transform="scale(1 1) rotate(0) translate(4 280)">
<title>dependencies</title>
<polygon fill="white" stroke="transparent" points="-4,4 -4,-280 1670,-280 1670,4 -4,4"/>
<text text-anchor="start" x="812.01" y="-42.4" font-family="Times-12" font-weight="bold" font-size="14.00">Legend</text>
<polygon fill="#ffffb3" stroke="transparent" points="599,-10 599,-30 619,-30 619,-10 599,-10"/>
<text text-anchor="start" x="622.63" y="-15.4" font-family="Times-12" font-size="14.00"> &#160;Declarations</text>
<polygon fill="#8dd3c7" stroke="transparent" points="712,-10 712,-30 732,-30 732,-10 712,-10"/>
<text text-anchor="start" x="735.73" y="-15.4" font-family="Times-12" font-size="14.00"> &#160;Module</text>
<polygon fill="#80b1d3" stroke="transparent" points="798,-10 798,-30 818,-30 818,-10 798,-10"/>
<text text-anchor="start" x="821.78" y="-15.4" font-family="Times-12" font-size="14.00"> &#160;Bootstrap</text>
<polygon fill="#fdb462" stroke="transparent" points="895,-10 895,-30 915,-30 915,-10 895,-10"/>
<text text-anchor="start" x="918.67" y="-15.4" font-family="Times-12" font-size="14.00"> &#160;Providers</text>
<polygon fill="#fb8072" stroke="transparent" points="991,-10 991,-30 1011,-30 1011,-10 991,-10"/>
<text text-anchor="start" x="1014.73" y="-15.4" font-family="Times-12" font-size="14.00"> &#160;Exports</text>
<g id="clust1" class="cluster">
<title>cluster_AppModule</title>
<polygon fill="none" stroke="black" stroke-dasharray="1,5" points="8,-70 8,-268 578,-268 578,-70 8,-70"/>
</g>
<g id="clust2" class="cluster">
<title>cluster_AppModule_declarations</title>
<polygon fill="none" stroke="black" points="168,-78 168,-130 570,-130 570,-78 168,-78"/>
</g>
<g id="clust6" class="cluster">
<title>cluster_AppModule_imports</title>
<polygon fill="none" stroke="black" points="16,-78 16,-130 160,-130 160,-78 16,-78"/>
</g>
<g id="clust8" class="cluster">
<title>cluster_AppModule_bootstrap</title>
<polygon fill="none" stroke="black" points="245,-208 245,-260 369,-260 369,-208 245,-208"/>
</g>
<g id="clust16" class="cluster">
<title>cluster_Route1Module</title>
<polygon fill="none" stroke="black" stroke-dasharray="1,5" points="586,-70 586,-195 1118,-195 1118,-70 586,-70"/>
</g>
<g id="clust17" class="cluster">
<title>cluster_Route1Module_declarations</title>
<polygon fill="none" stroke="black" points="764,-78 764,-130 1110,-130 1110,-78 764,-78"/>
</g>
<g id="clust20" class="cluster">
<title>cluster_Route1Module_imports</title>
<polygon fill="none" stroke="black" points="594,-78 594,-130 756,-130 756,-78 594,-78"/>
</g>
<g id="clust30" class="cluster">
<title>cluster_Route2Module</title>
<polygon fill="none" stroke="black" stroke-dasharray="1,5" points="1126,-70 1126,-195 1658,-195 1658,-70 1126,-70"/>
</g>
<g id="clust31" class="cluster">
<title>cluster_Route2Module_declarations</title>
<polygon fill="none" stroke="black" points="1304,-78 1304,-130 1650,-130 1650,-78 1304,-78"/>
</g>
<g id="clust34" class="cluster">
<title>cluster_Route2Module_imports</title>
<polygon fill="none" stroke="black" points="1134,-78 1134,-130 1296,-130 1296,-78 1134,-78"/>
</g>
<!-- AppComponent -->
<g id="node1" class="node">
<title>AppComponent</title>
<polygon fill="#ffffb3" stroke="black" points="561.94,-122 456.06,-122 456.06,-86 561.94,-86 561.94,-122"/>
<text text-anchor="middle" x="509" y="-99.8" font-family="Times,serif" font-size="14.00">AppComponent</text>
</g>
<!-- AppModule -->
<g id="node4" class="node">
<title>AppModule</title>
<polygon fill="#8dd3c7" stroke="black" points="348.66,-187 345.66,-191 324.66,-191 321.66,-187 265.34,-187 265.34,-151 348.66,-151 348.66,-187"/>
<text text-anchor="middle" x="307" y="-164.8" font-family="Times,serif" font-size="14.00">AppModule</text>
</g>
<!-- AppComponent&#45;&gt;AppModule -->
<g id="edge1" class="edge">
<title>AppComponent&#45;&gt;AppModule</title>
<path fill="none" stroke="black" d="M509,-122.02C509,-139.37 509,-163 509,-163 509,-163 358.85,-163 358.85,-163"/>
<polygon fill="black" stroke="black" points="358.85,-159.5 348.85,-163 358.85,-166.5 358.85,-159.5"/>
</g>
<!-- Route1Component -->
<g id="node2" class="node">
<title>Route1Component</title>
<polygon fill="#ffffb3" stroke="black" points="437.77,-122 316.23,-122 316.23,-86 437.77,-86 437.77,-122"/>
<text text-anchor="middle" x="377" y="-99.8" font-family="Times,serif" font-size="14.00">Route1Component</text>
</g>
<!-- Route1Component&#45;&gt;AppModule -->
<g id="edge2" class="edge">
<title>Route1Component&#45;&gt;AppModule</title>
<path fill="none" stroke="black" d="M332.47,-122.11C332.47,-122.11 332.47,-140.99 332.47,-140.99"/>
<polygon fill="black" stroke="black" points="328.97,-140.99 332.47,-150.99 335.97,-140.99 328.97,-140.99"/>
</g>
<!-- Route2Component -->
<g id="node3" class="node">
<title>Route2Component</title>
<polygon fill="#ffffb3" stroke="black" points="297.77,-122 176.23,-122 176.23,-86 297.77,-86 297.77,-122"/>
<text text-anchor="middle" x="237" y="-99.8" font-family="Times,serif" font-size="14.00">Route2Component</text>
</g>
<!-- Route2Component&#45;&gt;AppModule -->
<g id="edge3" class="edge">
<title>Route2Component&#45;&gt;AppModule</title>
<path fill="none" stroke="black" d="M281.53,-122.11C281.53,-122.11 281.53,-140.99 281.53,-140.99"/>
<polygon fill="black" stroke="black" points="278.03,-140.99 281.53,-150.99 285.03,-140.99 278.03,-140.99"/>
</g>
<!-- AppComponent  -->
<g id="node6" class="node">
<title>AppComponent </title>
<polygon fill="#80b1d3" stroke="black" points="361.44,-252 252.56,-252 252.56,-216 361.44,-216 361.44,-252"/>
<text text-anchor="middle" x="307" y="-229.8" font-family="Times,serif" font-size="14.00">AppComponent </text>
</g>
<!-- AppModule&#45;&gt;AppComponent  -->
<g id="edge5" class="edge">
<title>AppModule&#45;&gt;AppComponent </title>
<path fill="none" stroke="black" stroke-dasharray="1,5" d="M307,-187.11C307,-187.11 307,-205.99 307,-205.99"/>
<polygon fill="black" stroke="black" points="303.5,-205.99 307,-215.99 310.5,-205.99 303.5,-205.99"/>
</g>
<!-- AppRoutingModule -->
<g id="node5" class="node">
<title>AppRoutingModule</title>
<polygon fill="#8dd3c7" stroke="black" points="152.27,-122 149.27,-126 128.27,-126 125.27,-122 23.73,-122 23.73,-86 152.27,-86 152.27,-122"/>
<text text-anchor="middle" x="88" y="-99.8" font-family="Times,serif" font-size="14.00">AppRoutingModule</text>
</g>
<!-- AppRoutingModule&#45;&gt;AppModule -->
<g id="edge4" class="edge">
<title>AppRoutingModule&#45;&gt;AppModule</title>
<path fill="none" stroke="black" d="M88,-122.11C88,-141.34 88,-169 88,-169 88,-169 255.29,-169 255.29,-169"/>
<polygon fill="black" stroke="black" points="255.29,-172.5 265.29,-169 255.29,-165.5 255.29,-172.5"/>
</g>
<!-- Route1Child2Component -->
<g id="node7" class="node">
<title>Route1Child2Component</title>
<polygon fill="#ffffb3" stroke="black" points="1101.89,-122 942.11,-122 942.11,-86 1101.89,-86 1101.89,-122"/>
<text text-anchor="middle" x="1022" y="-99.8" font-family="Times,serif" font-size="14.00">Route1Child2Component</text>
</g>
<!-- Route1Module -->
<g id="node9" class="node">
<title>Route1Module</title>
<polygon fill="#8dd3c7" stroke="black" points="897.99,-187 894.99,-191 873.99,-191 870.99,-187 798.01,-187 798.01,-151 897.99,-151 897.99,-187"/>
<text text-anchor="middle" x="848" y="-164.8" font-family="Times,serif" font-size="14.00">Route1Module</text>
</g>
<!-- Route1Child2Component&#45;&gt;Route1Module -->
<g id="edge6" class="edge">
<title>Route1Child2Component&#45;&gt;Route1Module</title>
<path fill="none" stroke="black" d="M1022,-122.02C1022,-139.37 1022,-163 1022,-163 1022,-163 908.33,-163 908.33,-163"/>
<polygon fill="black" stroke="black" points="908.33,-159.5 898.33,-163 908.33,-166.5 908.33,-159.5"/>
</g>
<!-- Route1ChildComponent -->
<g id="node8" class="node">
<title>Route1ChildComponent</title>
<polygon fill="#ffffb3" stroke="black" points="924.39,-122 771.61,-122 771.61,-86 924.39,-86 924.39,-122"/>
<text text-anchor="middle" x="848" y="-99.8" font-family="Times,serif" font-size="14.00">Route1ChildComponent</text>
</g>
<!-- Route1ChildComponent&#45;&gt;Route1Module -->
<g id="edge7" class="edge">
<title>Route1ChildComponent&#45;&gt;Route1Module</title>
<path fill="none" stroke="black" d="M848,-122.11C848,-122.11 848,-140.99 848,-140.99"/>
<polygon fill="black" stroke="black" points="844.5,-140.99 848,-150.99 851.5,-140.99 844.5,-140.99"/>
</g>
<!-- Route1RoutingModule -->
<g id="node10" class="node">
<title>Route1RoutingModule</title>
<polygon fill="#8dd3c7" stroke="black" points="747.61,-122 744.61,-126 723.61,-126 720.61,-122 602.39,-122 602.39,-86 747.61,-86 747.61,-122"/>
<text text-anchor="middle" x="675" y="-99.8" font-family="Times,serif" font-size="14.00">Route1RoutingModule</text>
</g>
<!-- Route1RoutingModule&#45;&gt;Route1Module -->
<g id="edge8" class="edge">
<title>Route1RoutingModule&#45;&gt;Route1Module</title>
<path fill="none" stroke="black" d="M675,-122.28C675,-143.32 675,-175 675,-175 675,-175 787.96,-175 787.96,-175"/>
<polygon fill="black" stroke="black" points="787.96,-178.5 797.96,-175 787.96,-171.5 787.96,-178.5"/>
</g>
<!-- Route2Child2Component -->
<g id="node11" class="node">
<title>Route2Child2Component</title>
<polygon fill="#ffffb3" stroke="black" points="1641.89,-122 1482.11,-122 1482.11,-86 1641.89,-86 1641.89,-122"/>
<text text-anchor="middle" x="1562" y="-99.8" font-family="Times,serif" font-size="14.00">Route2Child2Component</text>
</g>
<!-- Route2Module -->
<g id="node13" class="node">
<title>Route2Module</title>
<polygon fill="#8dd3c7" stroke="black" points="1437.99,-187 1434.99,-191 1413.99,-191 1410.99,-187 1338.01,-187 1338.01,-151 1437.99,-151 1437.99,-187"/>
<text text-anchor="middle" x="1388" y="-164.8" font-family="Times,serif" font-size="14.00">Route2Module</text>
</g>
<!-- Route2Child2Component&#45;&gt;Route2Module -->
<g id="edge9" class="edge">
<title>Route2Child2Component&#45;&gt;Route2Module</title>
<path fill="none" stroke="black" d="M1562,-122.11C1562,-141.34 1562,-169 1562,-169 1562,-169 1448.33,-169 1448.33,-169"/>
<polygon fill="black" stroke="black" points="1448.33,-165.5 1438.33,-169 1448.33,-172.5 1448.33,-165.5"/>
</g>
<!-- Route2ChildComponent -->
<g id="node12" class="node">
<title>Route2ChildComponent</title>
<polygon fill="#ffffb3" stroke="black" points="1464.39,-122 1311.61,-122 1311.61,-86 1464.39,-86 1464.39,-122"/>
<text text-anchor="middle" x="1388" y="-99.8" font-family="Times,serif" font-size="14.00">Route2ChildComponent</text>
</g>
<!-- Route2ChildComponent&#45;&gt;Route2Module -->
<g id="edge10" class="edge">
<title>Route2ChildComponent&#45;&gt;Route2Module</title>
<path fill="none" stroke="black" d="M1388,-122.11C1388,-122.11 1388,-140.99 1388,-140.99"/>
<polygon fill="black" stroke="black" points="1384.5,-140.99 1388,-150.99 1391.5,-140.99 1384.5,-140.99"/>
</g>
<!-- Route2RoutingModule -->
<g id="node14" class="node">
<title>Route2RoutingModule</title>
<polygon fill="#8dd3c7" stroke="black" points="1287.61,-122 1284.61,-126 1263.61,-126 1260.61,-122 1142.39,-122 1142.39,-86 1287.61,-86 1287.61,-122"/>
<text text-anchor="middle" x="1215" y="-99.8" font-family="Times,serif" font-size="14.00">Route2RoutingModule</text>
</g>
<!-- Route2RoutingModule&#45;&gt;Route2Module -->
<g id="edge11" class="edge">
<title>Route2RoutingModule&#45;&gt;Route2Module</title>
<path fill="none" stroke="black" d="M1215,-122.28C1215,-143.32 1215,-175 1215,-175 1215,-175 1327.96,-175 1327.96,-175"/>
<polygon fill="black" stroke="black" points="1327.96,-178.5 1337.96,-175 1327.96,-171.5 1327.96,-178.5"/>
</g>
</g>
</svg>
